<svg width="38" height="38" viewBox="0 0 45 44" fill="white" xmlns="http://www.w3.org/2000/svg">
<path d="M22.6011 0C18.2499 0 13.9964 1.29031 10.3786 3.7077C6.76067 6.12509 3.94084 9.56102 2.27571 13.581C0.610581 17.601 0.174942 22.0244 1.02382 26.292C1.87269 30.5596 3.968 34.4796 7.04475 37.5564C10.1215 40.6332 14.0415 42.7284 18.3091 43.5773C22.5767 44.4261 27.0001 43.9905 31.0201 42.3254C35.0401 40.6603 38.476 37.8405 40.8934 34.2226C43.3108 30.6047 44.6011 26.3512 44.6011 22C44.6011 16.1652 42.2832 10.5695 38.1574 6.44366C34.0316 2.31786 28.4359 0 22.6011 0ZM18.7151 9.95001C19.8703 9.15022 21.242 8.72215 22.647 8.72302C22.756 8.72302 22.8651 8.72799 22.9691 8.73199C24.5563 8.80456 26.0698 9.42268 27.254 10.4819C28.4383 11.5412 29.2207 12.9767 29.4691 14.546C29.6616 15.7652 29.5239 17.0137 29.0703 18.1617C28.6168 19.3096 27.864 20.3151 26.8902 21.0735C25.9164 21.8319 24.7572 22.3155 23.5331 22.4741C22.309 22.6327 21.0648 22.4604 19.9299 21.9752C18.795 21.4899 17.8108 20.7095 17.0797 19.715C16.3486 18.7205 15.8974 17.5483 15.7728 16.3203C15.6483 15.0923 15.8551 13.8534 16.3717 12.7324C16.8882 11.6114 17.6957 10.6492 18.7101 9.94604L18.7151 9.95001ZM32.4661 36.473C29.5619 38.4826 26.1134 39.5577 22.5817 39.5544C19.0501 39.5512 15.6036 38.4699 12.7031 36.455C11.8016 35.8378 11.0881 34.9836 10.6413 33.9866C10.1945 32.9896 10.0318 31.8886 10.1711 30.805C10.4794 28.93 11.193 27.1449 12.2621 25.574C12.4992 25.2102 12.8074 24.8982 13.1683 24.6567C13.5293 24.4153 13.9353 24.2493 14.3621 24.169C17.1481 23.632 17.5981 26.496 22.6891 26.469C27.7031 26.46 28.1391 23.6371 30.9171 24.201C32.6171 24.546 33.4171 25.951 34.1171 27.819C34.456 28.7047 34.7265 29.615 34.9261 30.542C35.1357 31.6628 35.0146 32.8203 34.5776 33.8735C34.1406 34.9266 33.4066 35.8299 32.4651 36.473H32.4661Z" fill="white"/>
</svg>
